<svg fill="none" height="99" viewBox="0 0 346 99" width="346" xmlns="http://www.w3.org/2000/svg"><path d="m0 0h345.098v98.767h-345.098z" fill="#1b1b1d"/><g fill="#f9f9fb"><path d="m289.171 32.0488h23.927v1.8067h-22.12v13.7701h19.239v1.8067h-19.239v14.7955h22.12v1.8067h-23.927z"/><path d="m266.118 33.1719c1.953.9115 3.483 2.2625 4.59 4.0529 1.139 1.7904 1.709 3.7762 1.709 5.9573 0 2.5391-.781 4.8179-2.344 6.8362-1.53 1.9857-3.499 3.3041-5.908 3.9552l8.643 12.061h-2.149l-8.35-11.7192-1.562.0488h-12.257v11.6704h-1.807v-33.9857h12.94c1.433 0 2.654.0977 3.663.293 1.041.1628 1.985.4395 2.832.8301zm-4.883 19.3855c1.693 0 3.255-.4232 4.688-1.2696 1.432-.8463 2.571-1.9857 3.418-3.418.846-1.4324 1.269-2.995 1.269-4.6877 0-1.8881-.504-3.5972-1.514-5.1272-.976-1.53-2.343-2.6694-4.101-3.4181-1.27-.5208-3.06-.7813-5.372-.7813h-11.133v18.7019z"/><path d="m202.878 32.0488h1.806v20.9969c0 2.1486.537 4.1343 1.612 5.9573 1.074 1.823 2.523 3.2716 4.346 4.3459 1.823 1.0742 3.808 1.6114 5.957 1.6114 2.148 0 4.134-.5372 5.957-1.6114 1.823-1.0743 3.272-2.5229 4.346-4.3459s1.611-3.8087 1.611-5.9573v-20.9969h1.807v20.9969c0 2.4741-.618 4.7691-1.856 6.8851-1.237 2.0834-2.913 3.7436-5.029 4.9806-2.083 1.237-4.362 1.8556-6.836 1.8556s-4.769-.6186-6.885-1.8556c-2.084-1.237-3.744-2.8972-4.981-4.9806-1.237-2.116-1.855-4.411-1.855-6.8851z"/><path d="m188.174 32.0488v1.8067h-12.842v32.179h-1.758v-32.179h-12.842v-1.8067z"/><path d="m119.026 66.0345v-33.9857h1.904l23.732 23.0478v-23.0478h1.806v33.9857h-1.806v-8.3988l-23.83-23.243v31.6418z"/><path d="m78.4426 32.0488h23.9264v1.8067h-22.1197v13.7701h19.2391v1.8067h-19.2391v14.7955h22.1197v1.8067h-23.9264z"/><path d="m32 32h32.0325l-16.0163 34.7181zm16.0162 30.4211 13.233-28.6144h-26.4171z"/></g></svg>