<svg fill="none" viewBox="0 0 20 20" xmlns="http://www.w3.org/2000/svg"><path d="m14.9992.296337-2.5935-.00404c-2.91373 0-4.79671 1.875433-4.79671 4.778163v2.20306h-2.60768c-.22533 0-.4078.17734-.4078.39609v3.19199c0 .2187.18268.3959.4078.3959h2.60768v8.0543c0 .2188.18247.3959.4078.3959h3.40231c.2253 0 .4078-.1773.4078-.3959v-8.0543h3.049c.2253 0 .4078-.1772.4078-.3959l.0012-3.19199c0-.10503-.0431-.20562-.1194-.27995-.0764-.07433-.1804-.11614-.2886-.11614h-3.05v-1.86756c0-.89762.2203-1.3533 1.4248-1.3533l1.7471-.00061c.2251 0 .4076-.17734.4076-.39589v-2.963932c0-.218346-.1823-.395487-.4072-.395891z" fill="#f9f9fb"/></svg>