<svg fill="none" viewBox="0 0 20 20" xmlns="http://www.w3.org/2000/svg"><path d="m13 9.70801c0 .59339-.1759 1.17339-.5056 1.66669-.3296.4934-.7982.8779-1.3463 1.1049-.5482.2271-1.15143.2865-1.73337.1708-.58194-.1158-1.11649-.4015-1.53605-.8211-.41956-.4195-.70528-.9541-.82104-1.536-.11575-.58196-.05634-1.18516.17072-1.73334s.61158-1.01672 1.10493-1.34636c.49335-.32965 1.07337-.50559 1.66671-.50559.7954.00091 1.5579.31727 2.1203.87968s.8788 1.32495.8797 2.12032zm6.375-4.125v8.24999c-.0016 1.3919-.5552 2.7264-1.5394 3.7106-.9843.9842-2.3187 1.5378-3.7106 1.5394h-8.25c-1.3919-.0016-2.72635-.5552-3.71057-1.5394s-1.537854-2.3187-1.53943-3.7106v-8.24999c.001576-1.3919.55521-2.72635 1.53943-3.71057.98422-.984226 2.31867-1.537856 3.71057-1.539432h8.25c1.3919.001576 2.7263.555206 3.7106 1.539432.9842.98422 1.5378 2.31867 1.5394 3.71057zm-4.875 4.125c0-.89002-.2639-1.76005-.7584-2.50007s-1.1973-1.3168-2.0195-1.65739c-.8223-.34059-1.72709-.42971-2.60001-.25608-.87291.17364-1.67473.60222-2.30407 1.23156-.62934.62933-1.05792 1.43116-1.23155 2.30407-.17364.87292-.08452 1.7777.25607 2.6.3406.8223.91737 1.5251 1.65739 2.0195.74002.4945 1.61005.7584 2.50007.7584 1.1931-.0013 2.3369-.4759 3.1805-1.3195s1.3182-1.9874 1.3195-3.18049zm1.5-4.875c0-.22251-.066-.44001-.1896-.62502-.1236-.185-.2993-.3292-.5049-.41435-.2055-.08515-.4317-.10742-.65-.06402-.2182.04341-.4187.15056-.576.30789-.1573.15734-.2645.35779-.3079.57602s-.0211.44443.064.65c.0852.20556.2294.38126.4144.50488s.4025.1896.625.1896c.2984 0 .5845-.11853.7955-.32951s.3295-.49712.3295-.79549z" fill="#f9f9fb"/></svg>