<svg fill="none" viewBox="0 0 20 20" xmlns="http://www.w3.org/2000/svg"><path d="m20 12.0983v7.1781h-4.2866v-6.6973c0-1.6825-.6201-2.83065-2.1717-2.83065-1.1845 0-1.8893.77385-2.1994 1.52235-.1131.2676-.1422.64-.1422 1.0146v6.991h-4.28812s.05775-11.34308 0-12.51831h4.28772v1.77442c-.0087.01327-.02.02758-.0282.04044h.0282v-.04044c.5696-.85176 1.587-2.06851 3.8641-2.06851 2.8212-.00005 4.9362 1.78918 4.9362 5.6343zm-17.57354-11.374667c-1.466954 0-2.42646.934087-2.42646 2.162447 0 1.20159.931746 2.16403 2.36954 2.16403h.02864c1.49537 0 2.42534-.96226 2.42534-2.16403-.02817-1.22836-.92997-2.162447-2.39706-2.162447zm-2.171785 18.552767h4.286465v-12.51831h-4.286465z" fill="#f9f9fb"/></svg>