<svg fill="none" viewBox="0 0 20 14" xmlns="http://www.w3.org/2000/svg"><path d="m19.15 1.28629c-.5425-.936809-1.1312-1.109122-2.33-1.17465-1.1975-.0788761-4.2088-.11164-6.8175-.11164-2.61375 0-5.62625.032764-6.8225.110427-1.19625.066741-1.78625.237841-2.33375 1.175863-.55875.93559-.84625 2.54708-.84625 5.38419v.00364.00365.00242c0 2.82498.2875 4.44861.84625 5.37451.5475.9368 1.13625 1.1067 2.3325 1.1856 1.1975.0679 4.21.1079 6.82375.1079 2.6087 0 5.62-.04 6.8187-.1067 1.1988-.0789 1.7876-.2488 2.3301-1.1856.5637-.9259.8487-2.54952.8487-5.37449 0 0 0-.00364 0-.00607 0 0 0-.00243 0-.00364 0-2.83833-.285-4.44982-.85-5.38541zm-11.65 9.02831v-7.28091l6.25 3.64043z" fill="#f9f9fb"/></svg>